<svg xmlns="http://www.w3.org/2000/svg" width="51.323" height="42.413" viewBox="0 0 51.323 42.413">
  <g id="Group_221495" data-name="Group 221495" transform="translate(-4711.339 -652.587)">
    <path id="Path_169632" data-name="Path 169632" d="M1.062,18c-13.253,0-18.917,14.369-18.917,25.884S-7.36,56.512,5.888,56.512s26.447-3.364,26.447-14.88S14.312,18,1.062,18Z" transform="translate(4730.326 634.587)" fill="#e8eeff"/>
    <g id="Group_221495-2" data-name="Group 221495" transform="translate(35.339 93.78)">
      <path id="Path_150183" data-name="Path 150183" d="M4709.879,563.291l3.741-3.178,4.72-.872,3.941,1.365,3.071,2.686,1.245,4.3-.805,5.19-3.511,6.786-3.941,4.579h-1.224l-4.481-5.334-2.755-4.791-1.2-3.965v-3Z" transform="translate(-31.978 16.311)" fill="#a38dff"/>
      <path id="Path_150182" data-name="Path 150182" d="M4709.879,563.291l3.741-3.178,4.72-.872,3.941,1.365,3.071,2.686,1.245,4.3-.805,5.19-3.511,6.786-3.941,4.579h-1.224l-4.481-5.334-2.755-4.791-1.2-3.965v-3Z" fill="#a38dff"/>
      <g id="Group_221440" data-name="Group 221440" transform="translate(406.026 688.807)">
        <path id="Path_150079" data-name="Path 150079" d="M174.611,51.018a.656.656,0,0,1-.892,0c-.376-.347-9.212-8.594-9.212-16.409h0a9.661,9.661,0,1,1,19.32,0c0,7.815-8.839,16.062-9.215,16.409Zm-.446-24.758a8.358,8.358,0,0,0-8.346,8.349c0,6.29,6.559,13.236,8.346,15.015,1.788-1.779,8.349-8.731,8.349-15.015a8.358,8.358,0,0,0-8.349-8.349Z" transform="translate(4105.469 -138.78)"/>
        <path id="Path_150080" data-name="Path 150080" d="M274.781,142.381a4.135,4.135,0,1,1,2.92-1.21,4.132,4.132,0,0,1-2.92,1.21Zm0-6.949a2.823,2.823,0,1,0,1.993.827A2.82,2.82,0,0,0,274.781,135.432Z" transform="translate(4004.853 -242.423)"/>
      </g>
      <g id="Group_221441" data-name="Group 221441" transform="translate(438.026 672.807)">
        <path id="Path_150079-2" data-name="Path 150079" d="M174.611,51.018a.656.656,0,0,1-.892,0c-.376-.347-9.212-8.594-9.212-16.409h0a9.661,9.661,0,1,1,19.32,0c0,7.815-8.839,16.062-9.215,16.409Zm-.446-24.758a8.358,8.358,0,0,0-8.346,8.349c0,6.29,6.559,13.236,8.346,15.015,1.788-1.779,8.349-8.731,8.349-15.015a8.358,8.358,0,0,0-8.349-8.349Z" transform="translate(4105.469 -138.78)"/>
        <path id="Path_150080-2" data-name="Path 150080" d="M274.781,142.381a4.135,4.135,0,1,1,2.92-1.21,4.132,4.132,0,0,1-2.92,1.21Zm0-6.949a2.823,2.823,0,1,0,1.993.827A2.82,2.82,0,0,0,274.781,135.432Z" transform="translate(4004.853 -242.423)"/>
      </g>
      <g id="Group_221442" data-name="Group 221442" transform="translate(406.026 688.807)">
        <path id="Path_150079-3" data-name="Path 150079" d="M174.611,51.018a.656.656,0,0,1-.892,0c-.376-.347-9.212-8.594-9.212-16.409h0a9.661,9.661,0,1,1,19.32,0c0,7.815-8.839,16.062-9.215,16.409Zm-.446-24.758a8.358,8.358,0,0,0-8.346,8.349c0,6.29,6.559,13.236,8.346,15.015,1.788-1.779,8.349-8.731,8.349-15.015a8.358,8.358,0,0,0-8.349-8.349Z" transform="translate(4105.469 -138.78)"/>
        <path id="Path_150080-3" data-name="Path 150080" d="M274.781,142.381a4.135,4.135,0,1,1,2.92-1.21,4.132,4.132,0,0,1-2.92,1.21Zm0-6.949a2.823,2.823,0,1,0,1.993.827A2.82,2.82,0,0,0,274.781,135.432Z" transform="translate(4004.853 -242.423)"/>
      </g>
      <g id="Group_221443" data-name="Group 221443" transform="translate(438.026 672.807)">
        <path id="Path_150079-4" data-name="Path 150079" d="M174.611,51.018a.656.656,0,0,1-.892,0c-.376-.347-9.212-8.594-9.212-16.409h0a9.661,9.661,0,1,1,19.32,0c0,7.815-8.839,16.062-9.215,16.409Zm-.446-24.758a8.358,8.358,0,0,0-8.346,8.349c0,6.29,6.559,13.236,8.346,15.015,1.788-1.779,8.349-8.731,8.349-15.015a8.358,8.358,0,0,0-8.349-8.349Z" transform="translate(4105.469 -138.78)"/>
        <path id="Path_150080-4" data-name="Path 150080" d="M274.781,142.381a4.135,4.135,0,1,1,2.92-1.21,4.132,4.132,0,0,1-2.92,1.21Zm0-6.949a2.823,2.823,0,1,0,1.993.827A2.82,2.82,0,0,0,274.781,135.432Z" transform="translate(4004.853 -242.423)"/>
      </g>
      <path id="Path_150083" data-name="Path 150083" d="M4284.341,431.628s3.176.7,9.189-3.184c1.107-.714,2.786-3.276,4.412-4.513,2.68-2.038,7.333-3.223,10.393-7.455" transform="translate(406.026 164)" fill="none" stroke="#000" stroke-width="1.3"/>
      <path id="Path_150085" data-name="Path 150085" d="M4286.164,430a103.181,103.181,0,0,1,9.3-5.427c2.723-1.454,5.534-.136,9.016-4.929" transform="matrix(0.985, -0.174, 0.174, 0.985, 398.405, 908.818)" fill="none" stroke="#000" stroke-width="1.3"/>
      <path id="Path_150181" data-name="Path 150181" d="M4285.63,430h0c.007,0,3.652.687,10.211-2.824,2.674-1.428,6.447.1,10.09-4.644l.265-.038.039-.006.031,0,.281-.04h0" transform="matrix(0.927, -0.375, 0.375, 0.927, 558.549, 1786.578)" fill="none" stroke="#000" stroke-width="1.3"/>
    </g>
  </g>
</svg>
