<svg xmlns="http://www.w3.org/2000/svg" width="51.322" height="42.413" viewBox="0 0 51.322 42.413">
  <g id="Group_221496" data-name="Group 221496" transform="translate(-4269.974 -350.807)">
    <path id="Path_169632" data-name="Path 169632" d="M1.062,18c-13.253,0-18.917,14.369-18.917,25.884S-7.36,56.512,5.888,56.512s26.447-3.364,26.447-14.88S14.312,18,1.062,18Z" transform="translate(4287.829 332.807)" fill="#e8eeff"/>
    <path id="Path_150185" data-name="Path 150185" d="M4709.879,563.291l3.741-3.178,4.72-.872,3.941,1.365,3.071,2.686,1.245,4.3-.805,5.19-3.511,6.786-3.941,4.579h-1.224l-4.481-5.334-2.755-4.791-1.2-3.965v-3Z" transform="translate(-406.004 -207.678)" fill="#79e2f2"/>
    <path id="Path_150184" data-name="Path 150184" d="M4709.879,563.291l3.741-3.178,4.72-.872,3.941,1.365,3.071,2.686,1.245,4.3-.805,5.19-3.511,6.786-3.941,4.579h-1.224l-4.481-5.334-2.755-4.791-1.2-3.965v-3Z" transform="translate(-438.004 -192.433)" fill="#79e2f2"/>
    <g id="Group_221436" data-name="Group 221436" transform="translate(0 480.807)">
      <path id="Path_150079" data-name="Path 150079" d="M174.611,51.018a.656.656,0,0,1-.892,0c-.376-.347-9.212-8.594-9.212-16.409h0a9.661,9.661,0,1,1,19.32,0c0,7.815-8.839,16.062-9.215,16.409Zm-.446-24.758a8.358,8.358,0,0,0-8.346,8.349c0,6.29,6.559,13.236,8.346,15.015,1.788-1.779,8.349-8.731,8.349-15.015a8.358,8.358,0,0,0-8.349-8.349Z" transform="translate(4105.469 -138.78)"/>
      <path id="Path_150080" data-name="Path 150080" d="M274.781,142.381a4.135,4.135,0,1,1,2.92-1.21,4.132,4.132,0,0,1-2.92,1.21Zm0-6.949a2.823,2.823,0,1,0,1.993.827A2.82,2.82,0,0,0,274.781,135.432Z" transform="translate(4004.853 -242.423)"/>
    </g>
    <path id="Path_150081" data-name="Path 150081" d="M4281.989,389.416s7.995,5.7,11.816,0-3.632-9.207,7.6-12.757" transform="translate(4.688 -6)" fill="none" stroke="#000" stroke-width="1.3"/>
    <g id="Group_221437" data-name="Group 221437" transform="translate(32 464.807)">
      <path id="Path_150079-2" data-name="Path 150079" d="M174.611,51.018a.656.656,0,0,1-.892,0c-.376-.347-9.212-8.594-9.212-16.409h0a9.661,9.661,0,1,1,19.32,0c0,7.815-8.839,16.062-9.215,16.409Zm-.446-24.758a8.358,8.358,0,0,0-8.346,8.349c0,6.29,6.559,13.236,8.346,15.015,1.788-1.779,8.349-8.731,8.349-15.015a8.358,8.358,0,0,0-8.349-8.349Z" transform="translate(4105.469 -138.78)"/>
      <path id="Path_150080-2" data-name="Path 150080" d="M274.781,142.381a4.135,4.135,0,1,1,2.92-1.21,4.132,4.132,0,0,1-2.92,1.21Zm0-6.949a2.823,2.823,0,1,0,1.993.827A2.82,2.82,0,0,0,274.781,135.432Z" transform="translate(4004.853 -242.423)"/>
    </g>
  </g>
</svg>
